<?xml version="1.0" encoding="UTF-8" standalone="no"?>
<svg
   xmlns:dc="http://purl.org/dc/elements/1.1/"
   xmlns:cc="http://creativecommons.org/ns#"
   xmlns:rdf="http://www.w3.org/1999/02/22-rdf-syntax-ns#"
   xmlns:svg="http://www.w3.org/2000/svg"
   xmlns="http://www.w3.org/2000/svg"
   viewBox="0 0 2550.0667 1477.88"
   height="1477.88"
   width="2550.0667"
   xml:space="preserve"
   id="svg2"
   version="1.1"><metadata
     id="metadata8"><rdf:RDF><cc:Work
         rdf:about=""><dc:format>image/svg+xml</dc:format><dc:type
           rdf:resource="http://purl.org/dc/dcmitype/StillImage" /></cc:Work></rdf:RDF></metadata><defs
     id="defs6"><clipPath
       id="clipPath20"
       clipPathUnits="userSpaceOnUse"><path
         id="path18"
         d="M 0,8499.93 V 0 h 14666.6 v 8499.93 z" /></clipPath></defs><g
     transform="matrix(1.3333333,0,0,-1.3333333,0,1477.88)"
     id="g10"><g
       transform="scale(0.130402)"
       id="g12"><g
         id="g14"><g
           clip-path="url(#clipPath20)"
           id="g16"><path
             id="path22"
             style="fill:#ffffff;fill-opacity:1;fill-rule:nonzero;stroke:none"
             d="m 9283.05,5876.85 c 0.23,79.88 -15.03,135.83 -45.63,166.36 -21.24,21.28 -51.61,31.61 -92.87,31.61 -18.78,0 -39.64,-2.3 -62.34,-6.62 l -188.26,-36.11 -2.31,-951.03 112.27,21.69 c 78.53,14.84 117.71,29.71 136.89,39.83 94.4,60.08 140.18,145.96 140.41,262.35 z m 35.74,-1010.68 484.65,-1355.2 -423.15,-81.33 -394.47,1311.87 -94.79,-23.75 -3.07,-1382.66 -390.94,-75.15 6.98,3092.9 604.21,116.24 c 50.38,9.51 98.08,14.22 141.56,14.22 221.54,0 362.57,-123.2 407.35,-356.88 11.12,-57.42 16.72,-122.85 16.88,-194.66 l -1.84,-472.32 c -0.16,-246.67 -119.1,-446.08 -353.37,-593.28" /><path
             id="path24"
             style="fill:#ffffff;fill-opacity:1;fill-rule:nonzero;stroke:none"
             d="M 7801.94,4190.76 7612.42,5500.52 7416.95,4116.86 Z m 390.56,86.28 137.88,-1049.27 -393.63,-75.55 -84.04,649.4 -486.11,-93.5 -87.12,-682.26 -397.39,-76.37 142.25,1117.82 307.98,2060.37 560.03,107.72 300.15,-1958.36" /><path
             id="path26"
             style="fill:#ffffff;fill-opacity:1;fill-rule:nonzero;stroke:none"
             d="m 6359.01,3443.88 3.31,1923.07 c 0,77.21 -15.08,131.72 -45.23,161.85 -21.66,21.69 -53.02,32.4 -95.56,32.4 -18.99,0 -39.84,-2.26 -62.53,-6.36 l -2.91,-0.65 c -151.11,-29.1 -221.71,-121.16 -221.71,-290.01 l -3.3,-1923.29 c -0.4,-78.25 14.68,-133.15 44.59,-163.07 21.26,-21.49 51.81,-31.81 93.5,-31.81 19.19,0 40.47,2.29 63.58,6.61 153.37,29.5 225.22,122 226.26,291.26 z m 394.28,1977.78 -3.31,-1923.27 c -0.81,-205.18 -51.61,-371.98 -151.32,-495.83 -99.9,-124.26 -249.97,-206.63 -445.87,-244.81 -59.67,-11.59 -115.59,-17.39 -166.4,-17.39 -235.74,0 -384.34,124.91 -429.99,361.25 -10.31,54.72 -15.88,116.64 -16.28,184.38 l 3.3,1923.49 c 0.81,205.18 51.61,371.76 151.11,495.42 99.68,124.06 249.57,206.03 445.03,243.56 59.88,11.37 116.04,17.34 167.2,17.34 236.18,0 384.99,-124.86 430.44,-361.25 10.52,-54.67 15.88,-116.19 16.09,-182.89" /><path
             id="path28"
             style="fill:#ffffff;fill-opacity:1;fill-rule:nonzero;stroke:none"
             d="m 4905.95,5035.47 c 0.42,79.66 -15.07,135.58 -45.39,166.15 -21.29,21.27 -51.61,31.81 -93.1,31.81 -18.57,0 -39.62,-2.31 -62.16,-6.61 l -188.25,-36.13 -2.26,-951.22 112.29,21.65 c 78.46,15.08 117.44,29.94 136.63,40.08 94.35,59.86 140.39,145.71 140.59,262.34 z m 35.93,-1010.9 484.7,-1355 -423.37,-81.32 -394.52,1311.63 -94.75,-23.52 -2.85,-1382.86 -391.21,-75.16 7.01,3093.11 604.46,116.24 c 50.35,9.47 97.79,14.24 141.58,14.24 221.52,0 362.3,-123.47 407.3,-356.9 10.92,-57.42 16.68,-123.05 16.68,-194.9 l -1.84,-472.08 c -0.21,-246.67 -118.91,-446.07 -353.19,-593.48" /><path
             id="path30"
             style="fill:#ffffff;fill-opacity:1;fill-rule:nonzero;stroke:none"
             d="m 1668.15,5048.64 -5.56,-2520.06 c -0.65,-205.58 -51.41,-372.78 -151.12,-496.89 -99.91,-124.45 -249.97,-207.03 -445.88,-245.2 -59.46,-11.37 -115.176,-17.14 -165.981,-17.14 -235.941,0 -384.789,125.52 -430.394,362.7 -10.524,54.71 -16.078,116.64 -16.328,184.13 l 5.601,2499.82 390.969,75.16 -5.566,-2519.86 c -0.407,-78.87 14.636,-134.18 44.789,-164.54 21.457,-21.44 52.011,-31.77 93.703,-31.77 18.987,0 40.267,2.25 63.377,6.61 153.38,29.51 225.02,122.4 225.82,292.51 l 5.61,2499.42 390.96,75.11" /><path
             id="path32"
             style="fill:#ffffff;fill-opacity:1;fill-rule:nonzero;stroke:none"
             d="m 2735.16,4336.91 c 0.2,62.33 -12.57,106.72 -37.78,131.89 -20.24,20.43 -50.95,30.35 -93.5,30.35 -20.84,0 -44.38,-2.49 -69.98,-7.42 l -188.04,-36.13 -1.26,-823.44 112.29,21.65 c 79.7,15.28 119.13,29.76 138.74,39.23 93.3,54.1 138.93,128.82 139.13,228.31 z m 390.96,55.11 -0.4,-415.95 c -1.22,-272.71 -134.79,-476.23 -396.97,-604.84 -64.39,-30.97 -156.02,-57.59 -280.53,-81.53 l -104.87,-20.24 -2.45,-1186.15 -390.98,-75.11 5.97,2734.96 604.45,116.19 c 55.72,10.53 107.93,15.69 155.23,15.69 218.4,0 355.44,-112.7 396.32,-325.93 9.07,-46.65 13.83,-99.5 14.23,-157.09" /><path
             id="path34"
             style="fill:#4370c0;fill-opacity:1;fill-rule:nonzero;stroke:none"
             d="m 14360.8,3379.29 -1093.8,324.48 98,-702.26 -1849.2,1216.46 1,4.56 1204.8,-357.14 -91.1,652.95 1730.3,-1139.05" /><path
             id="path36"
             style="fill:#4370c0;fill-opacity:1;fill-rule:nonzero;stroke:none"
             d="m 14666.6,5842.98 -1129.1,-166.18 384.7,-595.74 -2189.4,325.12 -1.1,4.57 1243.1,183.07 -357.5,553.85 2049.3,-304.69" /><path
             id="path38"
             style="fill:#4370c0;fill-opacity:1;fill-rule:nonzero;stroke:none"
             d="m 14004.5,8173.36 -913.6,-683.71 621.9,-340.61 -2080.2,-756.56 -2.9,3.55 1005.7,752.81 -577.9,316.86 1947,707.66" /><path
             id="path40"
             style="fill:#4370c0;fill-opacity:1;fill-rule:nonzero;stroke:none"
             d="m 2697.38,4468.8 c 25.21,-25.17 37.98,-69.56 37.78,-131.89 l -0.4,-415.56 c -0.2,-99.49 -45.83,-174.21 -139.13,-228.31 -19.61,-9.47 -59.04,-23.95 -138.74,-39.23 l -112.29,-21.65 1.26,823.44 188.04,36.13 c 25.6,4.93 49.14,7.42 69.98,7.42 42.55,0 73.26,-9.92 93.5,-30.35" /><path
             id="path42"
             style="fill:#040606;fill-opacity:1;fill-rule:nonzero;stroke:none"
             d="m 9237.42,6043.21 c 30.6,-30.53 45.86,-86.48 45.63,-166.36 l -1.84,-471.92 c -0.23,-116.39 -46.01,-202.27 -140.41,-262.35 -19.18,-10.12 -58.36,-24.99 -136.89,-39.83 l -112.27,-21.69 2.31,951.03 188.26,36.11 c 22.7,4.32 43.56,6.62 62.34,6.62 41.26,0 71.63,-10.33 92.87,-31.61" /><path
             id="path44"
             style="fill:#040606;fill-opacity:1;fill-rule:nonzero;stroke:none"
             d="m 7612.42,5500.52 189.52,-1309.76 -384.99,-73.9 195.47,1383.66" /><path
             id="path46"
             style="fill:#040606;fill-opacity:1;fill-rule:nonzero;stroke:none"
             d="m 4860.56,5201.62 c 30.32,-30.57 45.81,-86.49 45.39,-166.15 l -1.65,-471.93 c -0.2,-116.63 -46.24,-202.48 -140.59,-262.34 -19.19,-10.14 -58.17,-25 -136.63,-40.08 l -112.29,-21.65 2.26,951.22 188.25,36.13 c 22.54,4.3 43.59,6.61 62.16,6.61 41.49,0 71.81,-10.54 93.1,-31.81" /><path
             id="path48"
             style="fill:#040606;fill-opacity:1;fill-rule:nonzero;stroke:none"
             d="m 6362.32,5366.95 -3.31,-1923.07 c -1.04,-169.26 -72.89,-261.76 -226.26,-291.26 -23.11,-4.32 -44.39,-6.61 -63.58,-6.61 -41.69,0 -72.24,10.32 -93.5,31.81 -29.91,29.92 -44.99,84.82 -44.59,163.07 l 3.3,1923.29 c 0,168.85 70.6,260.91 221.71,290.01 l 2.91,0.65 c 22.69,4.1 43.54,6.36 62.53,6.36 42.54,0 73.9,-10.71 95.56,-32.4 30.15,-30.13 45.23,-84.64 45.23,-161.85" /><path
             id="path50"
             style="fill:#040606;fill-opacity:1;fill-rule:nonzero;stroke:none"
             d="m 5426.58,2669.57 -484.7,1355 c 234.28,147.41 352.98,346.81 353.19,593.48 l 1.84,472.08 c 0,71.85 -5.76,137.48 -16.68,194.9 -45,233.43 -185.78,356.9 -407.3,356.9 -43.79,0 -91.23,-4.77 -141.58,-14.24 l -604.46,-116.24 -7.01,-3093.11 391.21,75.16 2.85,1382.86 94.75,23.52 394.52,-1311.63 z m 1323.4,828.82 3.31,1923.27 c -0.21,66.7 -5.57,128.22 -16.09,182.89 -45.45,236.39 -194.26,361.25 -430.44,361.25 -51.16,0 -107.32,-5.97 -167.2,-17.34 -195.46,-37.53 -345.35,-119.5 -445.03,-243.56 -99.5,-123.66 -150.3,-290.24 -151.11,-495.42 l -3.3,-1923.49 c 0.4,-67.74 5.97,-129.66 16.28,-184.38 45.65,-236.34 194.25,-361.25 429.99,-361.25 50.81,0 106.73,5.8 166.4,17.39 195.9,38.18 345.97,120.55 445.87,244.81 99.71,123.85 150.51,290.65 151.32,495.83 z M 8330.38,3227.77 8192.5,4277.04 7892.35,6235.4 7332.32,6127.68 7024.34,4067.31 6882.09,2949.49 l 397.39,76.37 87.12,682.26 486.11,93.5 84.04,-649.4 z m 1473.06,283.2 -484.65,1355.2 c 234.27,147.2 353.21,346.61 353.37,593.28 l 1.84,472.32 c -0.16,71.81 -5.76,137.24 -16.88,194.66 -44.78,233.68 -185.81,356.88 -407.35,356.88 -43.48,0 -91.18,-4.71 -141.56,-14.22 L 8504,6352.85 l -6.98,-3092.9 390.94,75.15 3.07,1382.66 94.79,23.75 394.47,-1311.87 z m 1642.76,1881.18 c 77.6,-413.05 -194.2,-810.63 -607.3,-888.24 l -506.6,-95.2 V 1929.73 l -6920.45,361.05 v 3093.31 l 6920.45,3115.84 v -2543 l 225.7,42.53 c 413,77.62 810.8,-194.25 888.2,-607.31" /><path
             id="path52"
             style="fill:#4370c0;fill-opacity:1;fill-rule:nonzero;stroke:none"
             d="m 1662.59,2528.58 5.56,2520.06 -390.96,-75.11 -5.61,-2499.42 c -0.8,-170.11 -72.44,-263 -225.82,-292.51 -23.11,-4.36 -44.39,-6.61 -63.377,-6.61 -41.692,0 -72.246,10.33 -93.703,31.77 -30.153,30.36 -45.196,85.67 -44.789,164.54 L 849.457,4891.16 458.488,4816 452.887,2316.18 c 0.25,-67.49 5.804,-129.42 16.328,-184.13 45.605,-237.18 194.453,-362.7 430.394,-362.7 50.805,0 106.521,5.77 165.981,17.14 195.91,38.17 345.97,120.75 445.88,245.2 99.71,124.11 150.47,291.31 151.12,496.89 z m 1463.13,1447.49 0.4,415.95 c -0.4,57.59 -5.16,110.44 -14.23,157.09 -40.88,213.23 -177.92,325.93 -396.32,325.93 -47.3,0 -99.51,-5.16 -155.23,-15.69 l -604.45,-116.19 -5.97,-2734.96 390.98,75.11 2.45,1186.15 104.87,20.24 c 124.51,23.94 216.14,50.56 280.53,81.53 262.18,128.61 395.75,332.13 396.97,604.84 z M 3411.85,2290.78 V 1892.8 L 1840.52,1589.97 C 1972.63,984.922 2264.52,439.332 2669.73,0 1843.82,146.625 1147.73,668.086 763.172,1382.3 L 0,1235.34 v 3888.25 l 3411.85,652.3 V 2290.78" /></g></g></g></g></svg>